<svg xmlns="http://www.w3.org/2000/svg" viewBox="0 0 91.67 28.69"><defs><style>.cls-1{fill:#f71c3c;}.cls-2{fill:#ba0c2d;}.cls-3{fill:#ff0019;}.cls-4{fill:#fff;}</style></defs><title>Asset 5</title><g id="Layer_2" data-name="Layer 2"><g id="Layer_1-2" data-name="Layer 1"><polygon class="cls-1" points="19.47 24.07 2.81 27.48 5.76 21.13 0 13.77 16.65 10.35 19.47 24.07"/><polygon class="cls-2" points="18.47 18.86 13.86 21.53 19.47 24.1 18.47 18.86"/><polygon class="cls-1" points="88.25 28.68 85.58 22.21 91.67 15.11 75.17 10.97 73.05 19.43 77.48 22.26 71.83 24.55 88.25 28.68"/><polygon class="cls-1" points="71.77 24.54 71.78 24.54 71.83 24.55 77.48 22.26 73.05 19.43 71.89 24.07 71.77 24.54"/><polygon class="cls-2" points="71.76 24.58 71.83 24.55 77.48 22.26 73.05 19.43 72.98 19.39 71.89 24.07 71.78 24.54 71.76 24.58"/><path class="cls-3" d="M77.31,22a121.57,121.57,0,0,0-64.16-.16L7.19,5.2A144.3,144.3,0,0,1,83.35,5Z"/><path class="cls-4" d="M27.3,13.88c.14.43,0,.7-.41.8a.67.67,0,0,1-.53,0,.83.83,0,0,1-.3-.45l-1.37-4c-.09.3-.21.48-.37.54a1,1,0,0,1-.57,0,.63.63,0,0,1-.5-.36,1.33,1.33,0,0,1,0-.79,11.58,11.58,0,0,0,.37-4.32,1.07,1.07,0,0,1,.14-.71.84.84,0,0,1,.51-.28c.58-.1.89.18.93.83q0,.53,0,1t0,1Zm0-5.76a.78.78,0,0,1-.35.52.82.82,0,0,1-.58,0A.7.7,0,0,1,26,8.3a.73.73,0,0,1,0-.64,7.5,7.5,0,0,0,.41-1.6,8.87,8.87,0,0,0,.06-1.52A.88.88,0,0,1,26.62,4a.92.92,0,0,1,1.09-.12.94.94,0,0,1,.2.72.73.73,0,0,0,0,.15.49.49,0,0,1,0,.14q2-.41,4.08-.73a1.59,1.59,0,0,1,1.1.12,1.2,1.2,0,0,1,.44.93,5.49,5.49,0,0,1,0,.67,3.09,3.09,0,0,1-.11.73.81.81,0,0,1-.35.55.69.69,0,0,1-.55,0,.76.76,0,0,1-.47-.28,1,1,0,0,1,0-.68c0-.22.08-.41.1-.59s0-.15,0-.18a.32.32,0,0,0-.21,0L30.5,5.6,32,12.06a1.51,1.51,0,0,1-.08,1.14,1.18,1.18,0,0,1-.84.5,3.43,3.43,0,0,1-.6,0,4,4,0,0,1-.8-.09.78.78,0,0,1-.53-.28.73.73,0,0,1-.09-.55c.05-.41.32-.58.78-.5l.5.07a.53.53,0,0,0,.26,0,.14.14,0,0,0,.08-.14,1.4,1.4,0,0,0,0-.28l-1.54-6.1-1.3.26A12.47,12.47,0,0,1,27.35,8.12Zm1.75.4q0,.61,0,1.11t-.06.94q0,.44-.12.87t-.18.93a.91.91,0,0,1-.31.57.55.55,0,0,1-.52.08.66.66,0,0,1-.45-.36,1.06,1.06,0,0,1,0-.64,11.84,11.84,0,0,0,.29-1.75,10.39,10.39,0,0,0,0-1.75A.82.82,0,0,1,27.84,8a.6.6,0,0,1,.48-.25.73.73,0,0,1,.58.18A.78.78,0,0,1,29.1,8.52Zm5.52,2.3a1.23,1.23,0,0,1,.14.64.51.51,0,0,1-.37.41.6.6,0,0,1-.57,0,1.18,1.18,0,0,1-.37-.53c-.14-.3-.27-.57-.39-.82s-.25-.48-.39-.71-.29-.46-.45-.7-.35-.5-.56-.79a1,1,0,0,1-.23-.63.55.55,0,0,1,.26-.44.58.58,0,0,1,.59-.13,1,1,0,0,1,.49.43q.32.47.58.87t.47.78q.22.38.4.77Z"/><path class="cls-4" d="M40.68,5.8c-.22.34-.47.49-.75.46l.4,4.37a1.27,1.27,0,0,1-.18.92,1.19,1.19,0,0,1-.86.34q-1.1.09-2.21.21a1.23,1.23,0,0,1-.92-.17,1.35,1.35,0,0,1-.4-.86L34.76,5A1.19,1.19,0,0,1,34.9,4a1.34,1.34,0,0,1,1-.4l.57-.06c0-.1,0-.2,0-.29s0-.2,0-.31a.81.81,0,0,1,.22-.62.83.83,0,0,1,.59-.19.71.71,0,0,1,.59.21A1.1,1.1,0,0,1,38,3l0,.2,0,.2.41,0a1.42,1.42,0,0,1,1,.21,1.23,1.23,0,0,1,.37.87v.12c.18-.3.35-.61.5-.94a5.67,5.67,0,0,0,.4-1.18A.8.8,0,0,1,41,1.89a.86.86,0,0,1,.63-.08.6.6,0,0,1,.5.3.8.8,0,0,1,0,.61c0,.11-.07.23-.11.36l2-.07a2,2,0,0,1,.74.1,1.25,1.25,0,0,1,.49.32,1.33,1.33,0,0,1,.28.49,2.58,2.58,0,0,1,.12.62c0,.4,0,.84,0,1.31s0,.95,0,1.41,0,.91-.06,1.32-.06.75-.08,1a7.93,7.93,0,0,1-.24,1.32,2.24,2.24,0,0,1-.4.82,1.31,1.31,0,0,1-.6.42,2.58,2.58,0,0,1-.85.11,6.41,6.41,0,0,1-.77-.08,6.52,6.52,0,0,1-1-.25,1.08,1.08,0,0,1-.61-.37.69.69,0,0,1,0-.58.57.57,0,0,1,.34-.4,1.06,1.06,0,0,1,.68.07,5.68,5.68,0,0,0,1,.27.81.81,0,0,0,.62-.11A1.06,1.06,0,0,0,44,10.2,6.82,6.82,0,0,0,44.24,9q.06-.64.06-1.69t0-2.65a.33.33,0,0,0-.13-.29.77.77,0,0,0-.43-.08l-2.18.09a6.85,6.85,0,0,1-.4.7Zm-2.27-.74a.37.37,0,0,0-.12-.27.63.63,0,0,0-.39,0l-1.41.14c-.12,0-.2.06-.23.13a.59.59,0,0,0,0,.29l.27,1.9L38.63,7Zm.36,3.23-2.06.2.27,1.9a.42.42,0,0,0,.13.29.48.48,0,0,0,.33,0l1.27-.12c.15,0,.24,0,.26-.1a.56.56,0,0,0,0-.27Zm4.75.14a.86.86,0,0,1,.16.67.72.72,0,0,1-.36.38.6.6,0,0,1-.59.05A1.23,1.23,0,0,1,42.27,9a9.89,9.89,0,0,0-.6-1.07q-.31-.48-.7-1a.85.85,0,0,1-.2-.56A.54.54,0,0,1,41,5.91a.84.84,0,0,1,.57-.16.82.82,0,0,1,.52.4l.72,1.12Q43.18,7.84,43.52,8.43Z"/><path class="cls-4" d="M47.27,9.54a.61.61,0,0,1-.49-.16.75.75,0,0,1-.12-.48.69.69,0,0,1,.13-.44.62.62,0,0,1,.5-.15q2,0,4.08.16V8.38a.74.74,0,0,1,.23-.55.67.67,0,0,1,.53-.19.84.84,0,0,1,.5.18.6.6,0,0,1,.15.55l0,.2q2.1.17,4.2.44a.62.62,0,0,1,.45.21.59.59,0,0,1,.07.46.81.81,0,0,1-.21.46.62.62,0,0,1-.51.1Q55,10,53.33,9.85A4,4,0,0,0,54.59,11a9.65,9.65,0,0,0,1.8.77A1.61,1.61,0,0,1,57,12c.1.09.11.26,0,.51a.66.66,0,0,1-.27.42.6.6,0,0,1-.46.06,6.85,6.85,0,0,1-2.38-1,6.25,6.25,0,0,1-1.8-1.92,4.65,4.65,0,0,1-.88.78,7.91,7.91,0,0,1-1.13.66A10.65,10.65,0,0,1,48.8,12a9.92,9.92,0,0,1-1.31.34,1.23,1.23,0,0,1-.71,0,.49.49,0,0,1-.24-.45.67.67,0,0,1,.15-.53,1,1,0,0,1,.61-.22,8.54,8.54,0,0,0,.91-.21,9.27,9.27,0,0,0,1-.33,9.16,9.16,0,0,0,.91-.43,4.3,4.3,0,0,0,.75-.51Q49.05,9.57,47.27,9.54Zm2.56-7.26A.53.53,0,0,1,50,1.82a.94.94,0,0,1,.52-.1.87.87,0,0,1,.51.15.53.53,0,0,1,.14.48l-.36,5a.57.57,0,0,1-.19.46.78.78,0,0,1-.48.1.8.8,0,0,1-.47-.14.54.54,0,0,1-.14-.47l.06-1.19-.4.3-.39.25-.44.25-.58.3a2.76,2.76,0,0,1-.36.15.56.56,0,0,1-.26,0A.41.41,0,0,1,47,7.27,1.58,1.58,0,0,1,46.78,7a.49.49,0,0,1-.07-.54.82.82,0,0,1,.45-.36h0q.57-.25,1-.46a5.8,5.8,0,0,0,.75-.5,1.35,1.35,0,0,1,.45-.28.54.54,0,0,1,.4,0Zm-.49,1.18a.85.85,0,0,1,.29.47.53.53,0,0,1-.24.43.88.88,0,0,1-.53.19.9.9,0,0,1-.53-.31,6.41,6.41,0,0,0-.5-.47,5.72,5.72,0,0,0-.51-.37,1,1,0,0,1-.44-.49.47.47,0,0,1,.19-.45h0a.62.62,0,0,1,.51-.25,1.71,1.71,0,0,1,.58.27,5.11,5.11,0,0,1,.71.54l.49.47Zm2.79,4.09a1.25,1.25,0,0,1-.69-.05q-.17-.11-.18-.49a1.4,1.4,0,0,1,0-.31.38.38,0,0,1,.11-.22.56.56,0,0,1,.25-.13,2,2,0,0,1,.41-.06l1-.1A7.9,7.9,0,0,0,53.88,6l-.2-.2-.21-.19-.24-.19-.3-.24a.94.94,0,0,1-.16-.14l-.12-.13a1,1,0,0,1-.69.21.71.71,0,0,1-.52-.51.35.35,0,0,1,0-.21.75.75,0,0,1,.16-.24A2,2,0,0,1,52,3.91a5.86,5.86,0,0,0,.79-.68,7.76,7.76,0,0,0,.62-.74A1.2,1.2,0,0,1,53.95,2a.79.79,0,0,1,.57.06c.26.11.4.23.4.38a.72.72,0,0,1-.17.46Q56,3,57.33,3.14a1.72,1.72,0,0,1,.64.17.92.92,0,0,1,.38.33.67.67,0,0,1,.09.44,1.06,1.06,0,0,1-.23.5,7.48,7.48,0,0,1-1.07,1.16,6.18,6.18,0,0,1-1.32.88,8,8,0,0,1-1.64.6,12.9,12.9,0,0,1-2,.33ZM53.77,4a1,1,0,0,1-.18.18l.24.13.34.28.3.27.31.31.38.4a5.44,5.44,0,0,0,.67-.41,6,6,0,0,0,.65-.55c.13-.11.16-.2.11-.25a.65.65,0,0,0-.37-.11Q55,4.09,53.77,4Z"/><path class="cls-4" d="M62.46,12.56a2.85,2.85,0,0,1-.2.55.68.68,0,0,1-.28.29.88.88,0,0,1-.43.09,4,4,0,0,1-.64-.08l-1.83-.32a3.92,3.92,0,0,1-.63-.15.72.72,0,0,1-.35-.23.61.61,0,0,1-.11-.37,3.11,3.11,0,0,1,.07-.58L58.6,9a2.26,2.26,0,0,1,.18-.58.74.74,0,0,1,.28-.31A.86.86,0,0,1,59.5,8a4.29,4.29,0,0,1,.65.06l2,.35a4.1,4.1,0,0,1,.67.17.8.8,0,0,1,.36.24.61.61,0,0,1,.11.38,2.27,2.27,0,0,1-.09.57Zm6.23-4.76a3.18,3.18,0,0,1-.24.56.8.8,0,0,1-.32.32.92.92,0,0,1-.48.09,3.86,3.86,0,0,1-.72-.12Q64.21,8,61.46,7.49a4.3,4.3,0,0,1-.65-.16.81.81,0,0,1-.38-.25.67.67,0,0,1-.14-.4,2.63,2.63,0,0,1,.07-.63l.3-1.4a2.68,2.68,0,0,1,.2-.62.74.74,0,0,1,.3-.34,1,1,0,0,1,.48-.1,4.45,4.45,0,0,1,.71.08q2.9.51,5.78,1.2a4,4,0,0,1,.68.22.89.89,0,0,1,.38.29.64.64,0,0,1,.1.42,2.62,2.62,0,0,1-.15.62ZM61.76,9.85c0-.12,0-.19-.2-.22l-1.41-.25q-.23,0-.27.14l-.46,2.13a.18.18,0,0,0,0,.14.25.25,0,0,0,.17.07L61,12.1c.15,0,.25,0,.27-.13Zm5.84-3.61c0-.12,0-.19-.2-.23q-2.5-.59-5-1c-.16,0-.26,0-.29.13l-.24,1a.17.17,0,0,0,0,.14.29.29,0,0,0,.18.08q2.47.44,4.93,1c.17,0,.27,0,.31-.11Zm.13,7.56a3.12,3.12,0,0,1-.24.52.71.71,0,0,1-.3.29.9.9,0,0,1-.44.08,3.25,3.25,0,0,1-.65-.11q-1.05-.27-2.11-.52a3.9,3.9,0,0,1-.62-.19.71.71,0,0,1-.33-.25.59.59,0,0,1-.08-.38,3,3,0,0,1,.11-.56L63.82,10a2.16,2.16,0,0,1,.23-.57.71.71,0,0,1,.32-.28.92.92,0,0,1,.45-.06,4.76,4.76,0,0,1,.63.11q1.14.26,2.28.55a3.15,3.15,0,0,1,.67.24.79.79,0,0,1,.34.3.62.62,0,0,1,.06.39,2.67,2.67,0,0,1-.14.53Zm-.5-2.64c0-.11,0-.19-.18-.23l-1.7-.41c-.15,0-.25,0-.28.12l-.6,2a.17.17,0,0,0,0,.14.25.25,0,0,0,.16.08l1.64.4q.23.06.29-.11Z"/></g></g></svg>