<svg xmlns="http://www.w3.org/2000/svg" viewBox="0 0 91.67 28.69"><defs><style>.cls-1{fill:#f71c3c;}.cls-2{fill:#ba0c2d;}.cls-3{fill:#ff0019;}.cls-4{fill:#fff;}</style></defs><title>Asset 2</title><g id="Layer_2" data-name="Layer 2"><g id="Layer_1-2" data-name="Layer 1"><polygon class="cls-1" points="19.47 24.07 2.81 27.48 5.76 21.13 0 13.77 16.65 10.35 19.47 24.07"/><polygon class="cls-2" points="18.47 18.86 13.86 21.53 19.47 24.1 18.47 18.86"/><polygon class="cls-1" points="88.25 28.68 85.58 22.21 91.67 15.11 75.17 10.97 73.05 19.43 77.48 22.26 71.83 24.55 88.25 28.68"/><polygon class="cls-1" points="71.77 24.54 71.78 24.54 71.83 24.55 77.48 22.26 73.05 19.43 71.89 24.07 71.77 24.54"/><polygon class="cls-2" points="71.76 24.58 71.83 24.55 77.48 22.26 73.05 19.43 72.98 19.39 71.89 24.07 71.78 24.54 71.76 24.58"/><path class="cls-3" d="M77.31,22a121.57,121.57,0,0,0-64.16-.16L7.19,5.2A144.3,144.3,0,0,1,83.35,5Z"/><path class="cls-4" d="M31.19,7.2a.77.77,0,0,1-.5-.13.52.52,0,0,1-.15-.42.57.57,0,0,1,.13-.41.72.72,0,0,1,.51-.14h1.63V5.62A.47.47,0,0,1,33,5.19a.89.89,0,0,1,.48-.11.86.86,0,0,1,.47.11.47.47,0,0,1,.17.43V6.1h2.7V5.62A.46.46,0,0,1,37,5.19a.92.92,0,0,1,.48-.11.88.88,0,0,1,.46.11.45.45,0,0,1,.19.43V6.1h1.58a.72.72,0,0,1,.51.14.57.57,0,0,1,.13.41.52.52,0,0,1-.15.42.77.77,0,0,1-.5.13H38.13v1H40a.66.66,0,0,1,.51.16.61.61,0,0,1,.13.41.59.59,0,0,1-.13.41.69.69,0,0,1-.51.15h-1.5a9.5,9.5,0,0,0,.89.66q.48.32,1,.62t.59.56a.55.55,0,0,1-.22.49,1,1,0,0,1-.23.15.51.51,0,0,1-.22,0,.83.83,0,0,1-.28-.07l-.36-.18a12.65,12.65,0,0,1-1.48-1,11.61,11.61,0,0,1-1.4-1.29H34a8.5,8.5,0,0,1-1.29,1.26,12.56,12.56,0,0,1-1.64,1.09,1.44,1.44,0,0,1-.72.24.73.73,0,0,1-.48-.28.48.48,0,0,1-.07-.49,1.06,1.06,0,0,1,.51-.43A12.13,12.13,0,0,0,31.49,10a6.42,6.42,0,0,0,.93-.74H30.76a.69.69,0,0,1-.5-.15.55.55,0,0,1-.15-.41.61.61,0,0,1,.13-.41.66.66,0,0,1,.51-.16h2.05v-1Zm2.26,4.42q-.15.28-.28.5a4.14,4.14,0,0,1-.3.43l-.38.45q-.21.24-.52.55a1.45,1.45,0,0,1-.36.29.87.87,0,0,1-.33.11.65.65,0,0,1-.29,0,.7.7,0,0,1-.24-.15q-.27-.22-.24-.41a1.1,1.1,0,0,1,.37-.51l.5-.52q.21-.22.37-.42a4,4,0,0,0,.27-.37,3.69,3.69,0,0,0,.2-.37,1,1,0,0,1,.37-.46.73.73,0,0,1,.58,0q.4.14.42.37a1,1,0,0,1-.16.55Zm2,1.75a1.2,1.2,0,0,1-.26.81,1.11,1.11,0,0,1-.88.3,4.36,4.36,0,0,1-1.38-.27q-.42-.11-.47-.31a.77.77,0,0,1,.09-.5q.13-.28.33-.31a1.31,1.31,0,0,1,.56.09l.42.13a.65.65,0,0,0,.21,0,.08.08,0,0,0,.08-.08,1.57,1.57,0,0,0,0-.22V10.13a.47.47,0,0,1,.18-.43.89.89,0,0,1,.48-.12.8.8,0,0,1,.47.12.49.49,0,0,1,.17.43ZM34.12,8.16h2.7v-1h-2.7Zm3.76,5.09a.64.64,0,0,1,0,.59.78.78,0,0,1-.52.26.61.61,0,0,1-.53-.08,1.34,1.34,0,0,1-.3-.55l-.13-.34-.13-.32-.18-.39q-.1-.21-.28-.53a1.57,1.57,0,0,1-.16-.4.5.5,0,0,1,0-.27.39.39,0,0,1,.16-.19,1.51,1.51,0,0,1,.29-.15.71.71,0,0,1,.51,0,1.08,1.08,0,0,1,.42.46q.18.32.31.56l.21.44q.09.21.17.41Zm2.24-.12a1.07,1.07,0,0,1,.13.59q0,.21-.41.33a.65.65,0,0,1-.59,0,1.14,1.14,0,0,1-.37-.46q-.14-.27-.31-.55t-.34-.51l-.33-.43-.27-.31a1.13,1.13,0,0,1-.36-.59.45.45,0,0,1,.24-.43.73.73,0,0,1,.55-.15,1.18,1.18,0,0,1,.62.43l.45.52q.2.23.36.46t.32.48q.15.25.31.55Z"/><path class="cls-4" d="M44.32,10.58l0-.07,0-.07,0-.11a.61.61,0,0,1,0-.13H44a4.45,4.45,0,0,1-.66,0,.92.92,0,0,1-.39-.14.49.49,0,0,1-.19-.27,1.58,1.58,0,0,1-.05-.44V9a1.48,1.48,0,0,1,.05-.43.51.51,0,0,1,.2-.27,1,1,0,0,1,.39-.15,3.86,3.86,0,0,1,.65,0h5.87a4.26,4.26,0,0,1,.69,0,.93.93,0,0,1,.4.15.49.49,0,0,1,.18.27,1.57,1.57,0,0,1,0,.41v.32a1.62,1.62,0,0,1,0,.42.46.46,0,0,1-.19.26,1,1,0,0,1-.4.14,4.68,4.68,0,0,1-.67,0h-.06a1,1,0,0,1,0,.17,1.18,1.18,0,0,1-.07.18s.72,0,2.18,0a.76.76,0,0,1,.46.1.45.45,0,0,1,.13.37.41.41,0,0,1-.14.34.74.74,0,0,1-.45.11H42a.77.77,0,0,1-.45-.1.39.39,0,0,1-.14-.34.46.46,0,0,1,.13-.37.73.73,0,0,1,.46-.11Zm1.95-4.94V5.51a.41.41,0,0,1,.2-.39A1,1,0,0,1,47,5a.94.94,0,0,1,.5.11.43.43,0,0,1,.17.39v.13h3.9a.76.76,0,0,1,.46.1.41.41,0,0,1,.13.34.39.39,0,0,1-.14.34.8.8,0,0,1-.45.1h-3.9v.41h3.45a.81.81,0,0,1,.48.1.46.46,0,0,1,.12.36.36.36,0,0,1-.13.33.94.94,0,0,1-.47.08H42.77a.9.9,0,0,1-.47-.09.37.37,0,0,1-.13-.33A.42.42,0,0,1,42.29,7a.85.85,0,0,1,.47-.09h3.51V6.51h-4a.85.85,0,0,1-.47-.09.38.38,0,0,1-.13-.34.42.42,0,0,1,.13-.34.76.76,0,0,1,.47-.11Zm5,7.68a2.25,2.25,0,0,1,0,.48.43.43,0,0,1-.17.27.83.83,0,0,1-.4.12q-.27,0-.71,0H43.8a5,5,0,0,1-.65,0,.87.87,0,0,1-.38-.13.45.45,0,0,1-.18-.27,1.86,1.86,0,0,1,0-.46v-.6a1.86,1.86,0,0,1,0-.46.45.45,0,0,1,.18-.27.87.87,0,0,1,.38-.13,4.91,4.91,0,0,1,.65,0H50a5.69,5.69,0,0,1,.7,0,1,1,0,0,1,.4.13.42.42,0,0,1,.18.27,2.13,2.13,0,0,1,0,.46ZM50,12.92c0-.09,0-.15-.06-.17a.51.51,0,0,0-.22,0H44.14a.44.44,0,0,0-.21,0s-.06.08-.06.17v.19q0,.21.27.22h5.58a.38.38,0,0,0,.22,0,.2.2,0,0,0,.06-.17Zm-.3-3.53a.21.21,0,0,0,.13,0,.22.22,0,0,0,.06-.18.2.2,0,0,0,0-.16.21.21,0,0,0-.14,0H44.14A.22.22,0,0,0,44,9a.18.18,0,0,0-.06.15.23.23,0,0,0,.05.18.22.22,0,0,0,.14,0Zm-4.12.8q.06.14.18.38h2.39l.11-.18.11-.2Z"/><path class="cls-4" d="M55.71,13.84q0,.6-.67.6a.73.73,0,0,1-.52-.15.6.6,0,0,1-.15-.45V10.11a.83.83,0,0,1-.51.38,1,1,0,0,1-.54-.11Q53,10.22,53,10a1.21,1.21,0,0,1,.29-.66,9.5,9.5,0,0,0,1.64-3.59,1,1,0,0,1,.32-.58A.8.8,0,0,1,55.75,5q.78,0,.58.9L56,6.8q-.14.44-.33.88Zm1.71-4.92a.81.81,0,0,1-.46.38.8.8,0,0,1-.53-.12.56.56,0,0,1-.27-.36.64.64,0,0,1,.17-.55A6.49,6.49,0,0,0,57.12,7a7.4,7.4,0,0,0,.44-1.29.84.84,0,0,1,.27-.47.71.71,0,0,1,.48-.11.63.63,0,0,1,.5.21.8.8,0,0,1,0,.65.61.61,0,0,0,0,.13.48.48,0,0,1,0,.12h3.79a1.48,1.48,0,0,1,1,.25,1,1,0,0,1,.24.86,4.5,4.5,0,0,1-.1.59,2.62,2.62,0,0,1-.23.63A.78.78,0,0,1,63,9a.7.7,0,0,1-.51-.08.65.65,0,0,1-.39-.31A.81.81,0,0,1,62.2,8q.13-.27.21-.5c0-.08,0-.13,0-.16a.31.31,0,0,0-.18,0H60.9V13.1a1.24,1.24,0,0,1-.35,1,1.44,1.44,0,0,1-1,.3,4,4,0,0,1-.63-.06,4.31,4.31,0,0,1-.79-.21.7.7,0,0,1-.46-.33.56.56,0,0,1,.06-.49q.25-.52.91-.29l.48.14a.63.63,0,0,0,.27,0,.14.14,0,0,0,.12-.11,1.09,1.09,0,0,0,0-.25V7.28H58.33A10.09,10.09,0,0,1,57.42,8.92Zm1.52.65q-.15.53-.29,1t-.3.8q-.16.37-.35.73t-.43.77a1,1,0,0,1-.47.43.63.63,0,0,1-.54,0,.54.54,0,0,1-.34-.4.87.87,0,0,1,.17-.55,9.43,9.43,0,0,0,.78-1.45,8.3,8.3,0,0,0,.47-1.5.77.77,0,0,1,.27-.45.63.63,0,0,1,.51-.13.67.67,0,0,1,.49.25A.62.62,0,0,1,58.94,9.57Zm4.85,2.8a.94.94,0,0,1,0,.58.54.54,0,0,1-.45.31.7.7,0,0,1-.59,0,.92.92,0,0,1-.27-.51q-.12-.42-.22-.76t-.24-.67q-.13-.33-.29-.67t-.37-.77a.81.81,0,0,1-.09-.58.54.54,0,0,1,.34-.35.6.6,0,0,1,.58,0,.89.89,0,0,1,.38.44q.22.45.39.83t.31.74q.14.36.25.72Z"/></g></g></svg>