<svg xmlns="http://www.w3.org/2000/svg" xmlns:xlink="http://www.w3.org/1999/xlink" viewBox="0 0 89.19 116.11"><defs><style>.cls-1{fill:none;}.cls-2{fill:#f22b31;stroke:#ff0;stroke-miterlimit:10;}.cls-3{fill:#fce99d;}.cls-4{isolation:isolate;}.cls-5{fill:#e7b62d;}.cls-6{clip-path:url(#clip-path);}.cls-7{fill:#f5c130;}.cls-8{fill:#fac531;}.cls-9{fill:#ffc932;}.cls-10{fill:#ffcf4b;}.cls-11{fill:#ffd255;}.cls-12{fill:#ffd45d;}.cls-13{fill:#ffd663;}.cls-14{fill:#ffd769;}.cls-15{fill:#ffd96e;}.cls-16{fill:#ffda73;}.cls-17{fill:#ffdb78;}.cls-18{fill:#ffdc7c;}.cls-19{fill:#ffdd80;}.cls-20{fill:#ffde84;}.cls-21{fill:#ffdf87;}.cls-22{clip-path:url(#clip-path-2);}.cls-23{fill:#ad8922;}.cls-24{fill:#a88521;}.cls-25{fill:#a38120;}.cls-26{fill:#b38d23;}.cls-27{fill:#b89124;}.cls-28{fill:#bd9525;}.cls-29{fill:#c29926;}.cls-30{fill:#c79d27;}.cls-31{fill:#cca128;}.cls-32{fill:#d1a529;}.cls-33{fill:#d6a92a;}.cls-34{fill:#dbad2b;}.cls-35{fill:#e0b12c;}.cls-36{fill:#e6b52d;}.cls-37{fill:#ebb92e;}.cls-38{fill:#f0bd2f;}.cls-39{clip-path:url(#clip-path-3);}.cls-40{fill:#ddae2b;}.cls-41{font-size:18px;font-family:STYuanti-SC-Bold, Yuanti SC;font-weight:700;}</style><clipPath id="clip-path"><path class="cls-1" d="M47.85,101.87l.5,4-1,.09-1,.07-1,0h-.95a34,34,0,0,1-12.15-2.24A34.24,34.24,0,0,1,10.6,76.16l4-.51a30.24,30.24,0,0,0,30,26.41c.28,0,.57,0,.86,0l.87-.07.83-.06C47.36,101.87,47.61,101.86,47.85,101.87Z"/></clipPath><clipPath id="clip-path-2"><path class="cls-1" d="M44.67,41.4v-4a34,34,0,0,1,12.17,2.25,34.35,34.35,0,0,1-7.44,66.07l-.57-4a30.2,30.2,0,0,0,19.8-11.62A30.32,30.32,0,0,0,55.42,43.39,30,30,0,0,0,44.67,41.4Z"/></clipPath><clipPath id="clip-path-3"><path class="cls-1" d="M14.57,75.64l-4,.51A34.56,34.56,0,0,1,17.54,50.7a34.12,34.12,0,0,1,22.76-13l1.1-.12,1.09-.09,1.09-.05,1.08,0v4c-.32,0-.65,0-1,0l-1,.09-1,.08c-.32,0-.62,0-.9,0a30.12,30.12,0,0,0-20.1,11.5,30.55,30.55,0,0,0-6.14,22.5Z"/></clipPath></defs><title>Asset 5</title><g id="Layer_2" data-name="Layer 2"><g id="Layer_1-2" data-name="Layer 1"><path class="cls-2" d="M49,27.64,44.6,2.84l-4.43,24.8h0a44.1,44.1,0,1,0,8.86,0"/><circle class="cls-3" cx="44.6" cy="71.73" r="39"/><g class="cls-4"><polygon class="cls-5" points="48.84 101.75 49.41 105.72 48.35 105.85 47.85 101.87 48.84 101.75"/><g class="cls-4"><g class="cls-6"><g class="cls-4"><path class="cls-7" d="M47.85,101.87l.5,4-.81.08-.81.06-.8,0-.8,0-.06-4,.73,0,.72-.06.69,0h.63"/><path class="cls-8" d="M45.07,102l.06,4H43.62l.11-4h1.34"/><path class="cls-9" d="M43.73,102l-.11,4-.47,0-.47,0-.47,0-.47,0,.33-4,.41,0,.41,0,.41,0h.42"/><path class="cls-10" d="M42.08,102l-.33,4-.45,0-.45,0-.45-.05-.45-.06.54-4,.39.05.39,0,.4,0,.4,0"/><path class="cls-11" d="M40.5,101.78l-.54,4-.44-.06-.44-.07-.44-.07-.44-.08.74-3.94.39.07.39.07.39.06.39.06"/><path class="cls-12" d="M38.94,101.53l-.74,3.94-.43-.09-.43-.09-.43-.1-.43-.1.95-3.89.38.09.38.08.38.08.38.08"/><path class="cls-13" d="M37.42,101.2l-.95,3.89L36,105l-.42-.11-.42-.12-.42-.12,1.14-3.84.37.11.37.1.37.1.37.09"/><path class="cls-14" d="M35.94,100.8l-1.14,3.84-.43-.13-.43-.14-.43-.14-.42-.15,1.34-3.78.37.13.38.13.38.12.38.12"/><path class="cls-15" d="M34.43,100.3l-1.34,3.78-.43-.16-.43-.16-.43-.17-.42-.17,1.54-3.7.37.15.38.15.38.14.38.14"/><path class="cls-16" d="M32.92,99.72l-1.54,3.7-.44-.19L30.5,103l-.43-.2-.43-.21L31.38,99l.38.18.38.18.39.17.39.17"/><path class="cls-17" d="M31.38,99l-1.75,3.61-.47-.23-.46-.24-.46-.25-.46-.25,2-3.49.4.22.41.22.41.21.41.2"/><path class="cls-18" d="M29.75,98.17l-2,3.49-.5-.29-.5-.3-.49-.31-.49-.31L28,97.1l.43.28.43.27.44.26.44.26"/><path class="cls-19" d="M28,97.1l-2.2,3.35-.6-.4-.59-.42L24,99.2l-.58-.44,2.47-3.15.51.39.52.38.52.37.53.36"/><path class="cls-20" d="M25.92,95.61l-2.47,3.15q-.5-.39-1-.8t-1-.84q-.47-.43-.93-.88t-.89-.91l2.91-2.75.79.8.82.77.85.74.87.71"/><path class="cls-21" d="M22.6,92.58l-2.91,2.75L19,94.59l-.66-.76L17.7,93l-.62-.8,3.22-2.39.55.71.57.69.58.67.6.66"/><path class="cls-20" d="M20.3,89.84l-3.22,2.39q-.37-.49-.72-1t-.68-1q-.33-.52-.65-1.06t-.61-1.08L18,86.17q.26.48.54,1t.57.93q.29.46.6.91t.63.88"/><path class="cls-19" d="M18,86.17l-3.53,1.9-.32-.61-.31-.62-.3-.62-.28-.63L16.88,84l.25.56.26.55.27.54.28.54"/><path class="cls-18" d="M16.88,84l-3.67,1.61L13,85.06l-.22-.54L12.55,84l-.2-.55,3.77-1.36.18.48.19.48.19.47.2.47"/><path class="cls-17" d="M16.12,82.08l-3.77,1.36L12.18,83,12,82.47,11.86,82l-.15-.5,3.84-1.13.13.44.14.43.14.43.15.43"/><path class="cls-16" d="M15.56,80.35l-3.84,1.13L11.58,81l-.12-.46-.12-.46-.11-.46,3.9-.92.1.41.1.41.11.4.12.4"/><path class="cls-15" d="M15.13,78.72l-3.9.92-.1-.45-.1-.45-.09-.45-.08-.46,3.95-.71.07.4.08.4.08.4.09.4"/><path class="cls-14" d="M14.8,77.13l-3.95.71-.07-.42L10.71,77l-.06-.42-.06-.42,4-.51.05.37.05.37.06.37.06.37"/></g></g></g><g class="cls-4"><g class="cls-22"><g class="cls-4"><path class="cls-23" d="M44.67,41.4v-4h.8l.8,0,.79,0,.79.06-.37,4-.7-.06-.7,0-.7,0h-.71"/><path class="cls-24" d="M47.48,41.53l.37-4q1,.09,2,.25t2,.37q1,.21,1.94.48t1.9.59L54.39,43q-.83-.28-1.68-.52T51,42.07q-.87-.19-1.75-.32t-1.78-.22"/><path class="cls-25" d="M54.39,43l1.29-3.79A34.23,34.23,0,0,1,78.42,66.06l-4,.66A30.31,30.31,0,0,0,54.39,43"/><path class="cls-24" d="M74.46,66.72l4-.66.05.33.05.33,0,.34,0,.34q.11.86.17,1.72t.09,1.71q0,.85,0,1.7t-.08,1.68l-4-.29q.05-.74.07-1.48t0-1.5q0-.75-.08-1.51t-.15-1.52l0-.3,0-.3,0-.29,0-.29"/><path class="cls-23" d="M74.79,73.91l4,.29q-.06.77-.14,1.53t-.21,1.51q-.12.75-.28,1.49t-.34,1.47l-3.88-1q.16-.64.3-1.3t.24-1.32q.11-.66.19-1.33t.13-1.35"/><path class="cls-26" d="M73.93,79.21l3.88,1q-.16.62-.34,1.24t-.39,1.22q-.2.6-.43,1.2T76.19,85L72.5,83.48q.22-.52.42-1t.38-1.06q.18-.53.34-1.08t.3-1.09"/><path class="cls-27" d="M72.5,83.48,76.19,85q-.22.52-.46,1t-.49,1q-.25.5-.52,1t-.55,1l-3.46-2q.25-.43.49-.87t.46-.88q.22-.45.43-.9t.4-.91"/><path class="cls-28" d="M70.71,87l3.46,2-.53.88-.56.86-.59.85-.61.83-3.19-2.42.54-.73.52-.75.49-.76.47-.78"/><path class="cls-29" d="M68.68,90.07l3.19,2.42-.58.74-.6.73-.62.71-.64.69L66.53,92.6,67.1,92l.55-.63.53-.64.51-.65"/><path class="cls-30" d="M66.53,92.6l2.91,2.76-.61.63-.63.61-.64.6-.66.58-2.61-3,.58-.51.57-.53.55-.54.54-.56"/><path class="cls-31" d="M64.29,94.74l2.61,3-.63.53-.64.51-.65.5-.67.48L62,96.52l.59-.43.58-.44.57-.45.55-.47"/><path class="cls-32" d="M62,96.52l2.31,3.28-.62.43-.64.42-.65.4-.66.39-2-3.47.58-.34.57-.36.56-.37.55-.38"/><path class="cls-33" d="M59.74,98l2,3.47-.62.35-.63.34-.64.33-.64.31-1.71-3.62.57-.28.56-.29.56-.3.55-.31"/><path class="cls-34" d="M57.51,99.15l1.71,3.62-.61.28-.61.27-.62.26-.63.25-1.43-3.75.55-.22.55-.23L57,99.4l.54-.25"/><path class="cls-35" d="M55.33,100.08l1.43,3.75-.59.22-.6.21-.6.2-.61.19L53.2,100.8l.54-.17.53-.17.53-.18.52-.19"/><path class="cls-36" d="M53.2,100.8l1.14,3.84-.57.17-.58.16-.58.15-.59.14-.87-3.91.52-.12.52-.13.51-.14.51-.15"/><path class="cls-37" d="M51.15,101.33l.87,3.91-.55.12-.56.11-.56.1-.56.09-.61-4,.5-.08.49-.09.49-.1.49-.1"/><path class="cls-38" d="M49.18,101.7l.61,4H49.4l-.57-4h.34"/></g></g></g><g class="cls-4"><g class="cls-39"><g class="cls-4"><path class="cls-13" d="M14.57,75.64l-4,.51-.05-.44,0-.44q0-.22,0-.44t0-.44l4-.31q0,.19,0,.39l0,.39,0,.39,0,.39"/><path class="cls-12" d="M14.42,74.09l-4,.31q0-.23,0-.46t0-.46q0-.23,0-.45t0-.45l4-.1q0,.2,0,.4t0,.4q0,.2,0,.4t0,.4"/><path class="cls-11" d="M14.34,72.48l-4,.1q0-.23,0-.45t0-.45q0-.23,0-.45t0-.45l4,.11q0,.2,0,.4t0,.4q0,.2,0,.4t0,.4"/><path class="cls-10" d="M14.35,70.88l-4-.11q0-.24,0-.47t0-.47q0-.23,0-.47t0-.47l4,.33q0,.21,0,.41t0,.41q0,.21,0,.41t0,.42"/><path class="cls-9" d="M14.45,69.23l-4-.33q0-.24,0-.48t.05-.47l.06-.47.06-.47,4,.55-.06.42-.05.42,0,.42q0,.21,0,.42"/><path class="cls-8" d="M14.64,67.55l-4-.55.07-.48.08-.48.08-.48.09-.48,3.93.78-.08.42-.07.42-.07.42-.06.43"/><path class="cls-7" d="M14.92,65.86,11,65.08l.1-.51.11-.51.12-.5.13-.5,3.88,1-.11.44-.11.44-.1.45-.09.45"/><path class="cls-38" d="M15.33,64.08l-3.88-1,.14-.52.15-.52.16-.52.17-.51,3.81,1.25-.15.45-.14.46-.13.46-.12.46"/><path class="cls-37" d="M15.87,62.24,12.07,61l.18-.54.19-.54.2-.53.21-.53,3.71,1.5-.18.47-.18.47-.17.47-.16.48"/><path class="cls-36" d="M16.57,60.36l-3.71-1.5.23-.56.24-.55.25-.55.26-.54,3.6,1.76-.23.48-.22.48-.21.49-.2.49"/><path class="cls-35" d="M17.44,58.41l-3.6-1.76.29-.57.3-.57.31-.56.32-.56,3.46,2-.28.49-.27.5-.26.5-.25.51"/><path class="cls-34" d="M18.51,56.42l-3.46-2,.35-.59.36-.58.37-.57.38-.56,3.29,2.29-.34.5-.33.5-.32.51-.31.52"/><path class="cls-33" d="M19.8,54.38,16.52,52.1l.42-.59.43-.58.45-.57.46-.56,3.08,2.56-.4.5-.39.51-.38.52-.37.52"/><path class="cls-32" d="M21.36,52.34l-3.08-2.56.5-.59.51-.58.52-.57.54-.55,2.84,2.83-.47.49-.46.5-.45.51-.44.52"/><path class="cls-31" d="M23.19,50.32,20.35,47.5l.58-.57.6-.56.61-.54.62-.53,2.56,3.08-.55.47-.54.48-.53.49-.51.51"/><path class="cls-30" d="M25.32,48.37l-2.56-3.08.67-.55.69-.53.7-.51.72-.5,2.24,3.33-.63.44-.62.45-.61.47-.6.48"/><path class="cls-29" d="M27.77,46.53,25.54,43.2l.78-.51.79-.49.81-.47.82-.45,1.86,3.55-.73.39-.71.41-.7.43-.69.45"/><path class="cls-28" d="M30.6,44.85,28.74,41.3l.89-.45.91-.43.92-.4.94-.37,1.43,3.74-.83.33-.81.35-.8.38-.79.4"/><path class="cls-27" d="M33.82,43.39l-1.43-3.74,1-.38,1.06-.35,1.08-.31,1.09-.28.93,3.9-1,.25-1,.28-.94.31-.92.33"/><path class="cls-26" d="M37.6,42.23l-.93-3.9.81-.18.82-.16.82-.14.83-.12.55,4-.73.11-.73.13-.72.14-.71.16"/><path class="cls-23" d="M40.5,41.69l-.55-4h.68l.44,4H40.5"/><path class="cls-26" d="M41.07,41.64l-.44-4,.58-.06.58-.05.58,0,.58,0,.15,4.05-.53,0-.52,0-.51,0-.48,0"/><path class="cls-23" d="M43.11,41.49,43,37.43l.43,0h1.28v4h-.38l-.39,0-.39,0-.39,0"/></g></g></g><path class="cls-40" d="M44.67,41.09a30.29,30.29,0,0,1,10.85,2A30.64,30.64,0,0,1,48.88,102l-1,.13c-.24,0-.49,0-.76,0l-.84.06-.88.07c-.29,0-.58,0-.86,0a30.32,30.32,0,0,1-10.84-2A30.54,30.54,0,0,1,14.27,75.68,30.85,30.85,0,0,1,20.47,53a30.43,30.43,0,0,1,20.3-11.62c.29,0,.59,0,.91,0l1-.09,1-.09C44,41.11,44.35,41.09,44.67,41.09Z"/></g><text class="cls-41" transform="translate(27.3 66.44)">开始<tspan x="0" y="21.6">抽奖</tspan></text></g></g></svg>