<svg xmlns="http://www.w3.org/2000/svg" viewBox="0 0 76.96 76.97"><defs><style>.cls-1{fill:#ffd57c;}.cls-2{fill:#ffb932;}.cls-3{fill:none;}.cls-4{font-size:7px;font-family:STYuanti-SC-Light, Yuanti SC;}</style></defs><title>lottery-diskAsset 4</title><g id="Layer_2" data-name="Layer 2"><g id="Layer_1-2" data-name="Layer 1"><path class="cls-1" d="M57.73,5.15,38.48,38.48,19.24,5.15a38.53,38.53,0,0,1,38.49,0Z"/><path class="cls-2" d="M38.48,38.48H0A38.48,38.48,0,0,1,19.24,5.15Z"/><path class="cls-2" d="M77,38.49H38.48L57.73,5.15A38.47,38.47,0,0,1,77,38.49Z"/><path class="cls-2" d="M57.73,71.82a38.5,38.5,0,0,1-38.49,0L38.48,38.49h0Z"/><path class="cls-1" d="M38.48,38.49,19.24,71.81A38.45,38.45,0,0,1,0,38.49Z"/><path class="cls-1" d="M77,38.49A38.47,38.47,0,0,1,57.73,71.82L38.49,38.49Z"/><line class="cls-3" x1="38.48" y1="38.48" x2="38.48" y2="13.48"/><line class="cls-3" x1="38.49" y1="38.49" x2="60.16" y2="25.98"/><line class="cls-3" x1="38.48" y1="38.49" x2="60.13" y2="50.99"/><line class="cls-3" x1="38.48" y1="37.74" x2="38.48" y2="62.74"/><line class="cls-3" x1="16.83" y1="51" x2="38.5" y2="38.48"/><line class="cls-3" x1="16.23" y1="25.64" x2="37.88" y2="38.14"/><text class="cls-4" transform="matrix(0.5, 0.87, -0.87, 0.5, 56.27, 16.1)">一等奖</text><text class="cls-4" transform="translate(48.75 64.32) rotate(-179.98)">二等奖</text><text class="cls-4" transform="matrix(0.5, -0.87, 0.87, 0.5, 9.41, 33.83)">三等奖</text><text class="cls-4" transform="translate(24.48 12.1) rotate(-0.03)">谢谢参与</text><text class="cls-4" transform="matrix(-0.52, 0.85, -0.85, -0.52, 69.87, 40.45)">谢谢参与</text><text class="cls-4" transform="translate(21.5 64.46) rotate(-119.25)">谢谢参与</text></g></g></svg>